<?xml version="1.0" encoding="UTF-8"?>
<svg xmlns="http://www.w3.org/2000/svg" xmlns:xlink="http://www.w3.org/1999/xlink" width="579.653pt" height="288pt" viewBox="0 0 579.653 288" version="1.1">
<defs>
<clipPath id="clip1">
  <path d="M 0 0 L 576.007812 0 L 576.007812 288 L 0 288 Z M 0 0 "/>
</clipPath>
<clipPath id="clip2">
  <path d="M 17.894531 5.476562 L 570.527344 5.476562 L 570.527344 270.105469 L 17.894531 270.105469 Z M 17.894531 5.476562 "/>
</clipPath>
</defs>
<g id="surface1">
<g clip-path="url(#clip1)" clip-rule="nonzero">
<path style="fill-rule:nonzero;fill:rgb(100%,100%,100%);fill-opacity:1;stroke-width:0.59776;stroke-linecap:round;stroke-linejoin:round;stroke:rgb(100%,100%,100%);stroke-opacity:1;stroke-miterlimit:10;" d="M 0 0 L 0 288.003906 L 576.007812 288.003906 L 576.007812 0 Z M 0 0 " transform="matrix(1,0,0,-1,0,288)"/>
</g>
<g clip-path="url(#clip2)" clip-rule="nonzero">
<path style=" stroke:none;fill-rule:nonzero;fill:rgb(100%,100%,100%);fill-opacity:1;" d="M 17.894531 270.105469 L 17.894531 5.476562 L 570.527344 5.476562 L 570.527344 270.105469 Z M 17.894531 270.105469 "/>
</g>
<path style="fill:none;stroke-width:1.0959;stroke-linecap:butt;stroke-linejoin:round;stroke:rgb(0%,0%,0%);stroke-opacity:1;stroke-miterlimit:10;" d="M 17.894531 17.894531 L 17.894531 282.523438 " transform="matrix(1,0,0,-1,0,288)"/>
<path style="fill:none;stroke-width:1.0959;stroke-linecap:butt;stroke-linejoin:round;stroke:rgb(0%,0%,0%);stroke-opacity:1;stroke-miterlimit:10;" d="M 17.894531 17.894531 L 570.527344 17.894531 " transform="matrix(1,0,0,-1,0,288)"/>
</g>
</svg>
